<?xml version="1.0" encoding="UTF-8" standalone="no"?>
<svg
   xmlns:xhtml="http://www.w3.org/1999/xhtml"
   xmlns:dc="http://purl.org/dc/elements/1.1/"
   xmlns:cc="http://creativecommons.org/ns#"
   xmlns:rdf="http://www.w3.org/1999/02/22-rdf-syntax-ns#"
   xmlns:svg="http://www.w3.org/2000/svg"
   xmlns="http://www.w3.org/2000/svg"
   xmlns:sodipodi="http://sodipodi.sourceforge.net/DTD/sodipodi-0.dtd"
   xmlns:inkscape="http://www.inkscape.org/namespaces/inkscape"
   version="1.1"
   width="421.48563"
   height="317.57748"
   id="svg2"
   inkscape:version="0.48.4 r9939"
   sodipodi:docname="besec.svg">
  <metadata
     id="metadata72">
    <rdf:RDF>
      <cc:Work
         rdf:about="">
        <dc:format>image/svg+xml</dc:format>
        <dc:type
           rdf:resource="http://purl.org/dc/dcmitype/StillImage" />
      </cc:Work>
    </rdf:RDF>
  </metadata>
  <sodipodi:namedview
     pagecolor="#ffffff"
     bordercolor="#666666"
     borderopacity="1"
     objecttolerance="10"
     gridtolerance="10"
     guidetolerance="10"
     inkscape:pageopacity="0"
     inkscape:pageshadow="2"
     inkscape:window-width="1670"
     inkscape:window-height="1090"
     id="namedview70"
     showgrid="false"
     inkscape:zoom="1.668772"
     inkscape:cx="281.51646"
     inkscape:cy="178.58349"
     inkscape:window-x="0"
     inkscape:window-y="0"
     inkscape:window-maximized="0"
     inkscape:current-layer="svg2"
     fit-margin-top="0"
     fit-margin-left="0"
     fit-margin-right="0"
     fit-margin-bottom="0" />
  <xhtml:style />
  <defs
     id="defs4" />
  <g
     id="g3080"
     transform="translate(-5.029522,-29.514037)">
    <g
       style="fill:#000000;stroke:#000000"
       transform="matrix(0.35415034,0,0,0.35415034,120.6296,98.038368)"
       id="g12">
      <g
         style="fill:#000000;stroke:#000000"
         id="g14">
        <g
           style="fill:#000000;stroke:#000000"
           id="g16">
          <path
             d="m 466.5,83.7 -192,-80 c -11.812,-4.900084 -25.088,-4.900084 -36.9,0 l -192,80 C 27.7,91.1 16,108.6 16,128 c 0,198.5 114.5,335.7 221.5,380.3 11.8,4.9 25.1,4.9 36.9,0 C 360.1,472.6 496,349.3 496,128 496,108.6 484.3,91.1 466.5,83.7 z M 256.1,446.3 256,65.3 431.9,138.6 C 428.6,290 349.8,399.7 256.1,446.3 z"
             stroke-miterlimit="10"
             id="path18"
             inkscape:connector-curvature="0"
             style="fill:#000000;stroke:#000000;stroke-miterlimit:10;stroke-opacity:0;stroke-dasharray:none" />
        </g>
      </g>
    </g>
    <g
       style="stroke:#000000"
       transform="matrix(12,0,0,12,-6160.24,-7482.4644)"
       id="g20">
      <g
         style="stroke:#000000"
         id="g22">
        <g
           style="stroke:#000000"
           id="g24">
          <g
             style="stroke:#000000"
             transform="matrix(0.3511236,0,0,0.3511236,296.3382,428.9602)"
             id="g26">
            <g
               style="stroke:#000000"
               id="g28">
              <g
                 style="stroke:#000000"
                 transform="translate(619.2857,548.7908)"
                 id="g30">
                <g
                   style="stroke:#000000"
                   id="g32">
                  <path
                     d="M 71,80 69.3,80 95,80"
                     id="path34"
                     inkscape:connector-curvature="0"
                     style="fill:#000000;fill-opacity:0;stroke:#000000" />
                  <path
                     d="m 71,80 m 0,0 -1.7,0 25.7,0"
                     stroke-miterlimit="10"
                     id="path36"
                     inkscape:connector-curvature="0"
                     style="fill:none;stroke:#000000;stroke-width:4;stroke-miterlimit:10;stroke-dasharray:none" />
                </g>
              </g>
              <g
                 style="stroke:#000000"
                 id="g38">
                <g
                   style="stroke:#000000"
                   id="g40">
                  <path
                     d="m 664.4857,569.5907 c -16.2,0 -28.5,13 -28.5,29.2001 0,10.1 5,19 12.7,24.2 0.3,0.2 0.6,0.4 0.9,0.6"
                     id="path42"
                     inkscape:connector-curvature="0"
                     style="fill:#000000;fill-opacity:0;stroke:#000000" />
                  <path
                     d="m 664.4857,569.5907 m 0,0 c -16.2,0 -28.5,13 -28.5,29.2001 0,10.1 5,19 12.7,24.2 0.3,0.2 0.6,0.4 0.9,0.6"
                     stroke-miterlimit="10"
                     id="path44"
                     inkscape:connector-curvature="0"
                     style="fill:none;stroke:#000000;stroke-width:4;stroke-linejoin:round;stroke-miterlimit:10;stroke-dasharray:none" />
                </g>
              </g>
              <g
                 style="stroke:#000000"
                 transform="translate(619.2857,548.7908)"
                 id="g46">
                <g
                   style="stroke:#000000"
                   id="g48">
                  <path
                     d="m 91.6,72.9 6.4,6.3 -6.4,6.4"
                     id="path50"
                     inkscape:connector-curvature="0"
                     style="fill:#000000;fill-opacity:0;stroke:#000000" />
                  <path
                     d="m 91.6,72.9 m 0,0 6.4,6.3 -6.4,6.4"
                     stroke-miterlimit="10"
                     id="path52"
                     inkscape:connector-curvature="0"
                     style="fill:none;stroke:#000000;stroke-width:4;stroke-linecap:round;stroke-linejoin:round;stroke-miterlimit:10;stroke-dasharray:none" />
                </g>
              </g>
              <g
                 style="stroke:#000000"
                 transform="translate(619.2857,548.7908)"
                 id="g54">
                <g
                   style="stroke:#000000"
                   id="g56">
                  <path
                     d="m 56.7,27.1 -6.4,-6.3 6.4,-6.4"
                     id="path58"
                     inkscape:connector-curvature="0"
                     style="fill:#000000;fill-opacity:0;stroke:#000000" />
                  <path
                     d="m 56.7,27.1 m 0,0 -6.4,-6.3 6.4,-6.4"
                     stroke-miterlimit="10"
                     id="path60"
                     inkscape:connector-curvature="0"
                     style="fill:none;stroke:#000000;stroke-width:4;stroke-linecap:round;stroke-linejoin:round;stroke-miterlimit:10;stroke-dasharray:none" />
                </g>
              </g>
              <g
                 style="stroke:#000000"
                 id="g62">
                <g
                   style="stroke:#000000"
                   id="g64">
                  <path
                     d="m 670.5857,569.9908 c 16.2,0 29.4,13.2 29.4,29.4 0,16.2 -13.1,29.4 -29.2,29.4 l -49.5,0"
                     id="path66"
                     inkscape:connector-curvature="0"
                     style="fill:#000000;fill-opacity:0;stroke:#000000" />
                  <path
                     d="m 670.5857,569.9908 m 0,0 c 16.2,0 29.4,13.2 29.4,29.4 0,16.2 -13.1,29.4 -29.2,29.4 l -49.5,0"
                     stroke-miterlimit="10"
                     id="path68"
                     inkscape:connector-curvature="0"
                     style="fill:none;stroke:#000000;stroke-width:4;stroke-linecap:round;stroke-linejoin:round;stroke-miterlimit:10;stroke-dasharray:none" />
                </g>
              </g>
            </g>
          </g>
        </g>
      </g>
    </g>
  </g>
</svg>
