<?xml version="1.0" standalone="no"?>
<!DOCTYPE svg PUBLIC "-//W3C//DTD SVG 20010904//EN"
 "http://www.w3.org/TR/2001/REC-SVG-20010904/DTD/svg10.dtd">
<svg version="1.0" xmlns="http://www.w3.org/2000/svg"
 width="444.000000pt" height="444.000000pt" viewBox="0 0 444.000000 444.000000"
 preserveAspectRatio="xMidYMid meet">
<metadata>
Created by potrace 1.11, written by Peter Selinger 2001-2013
</metadata>
<g transform="translate(0.000000,444.000000) scale(0.100000,-0.100000)"
fill="#000000" stroke="none">
<path d="M2322 3658 c-154 -153 -177 -185 -167 -226 7 -28 149 -179 258 -273
78 -68 104 -73 148 -30 44 45 39 72 -28 142 -31 32 -53 59 -48 59 16 0 133
-32 182 -50 588 -216 895 -843 707 -1441 -108 -345 -397 -635 -740 -742 -183
-58 -164 -57 -1352 -57 -1162 0 -1138 1 -1156 -45 -8 -21 -8 -59 0 -80 18 -46
-4 -45 1122 -45 655 0 1100 4 1163 10 405 41 751 252 976 597 320 490 272
1148 -115 1586 -214 242 -475 384 -816 442 l-38 6 80 83 c88 90 102 118 78
164 -17 33 -34 42 -79 42 -26 0 -52 -21 -175 -142z"/>
<path d="M1855 3523 c-11 -2 -56 -11 -100 -19 -235 -45 -458 -166 -635 -343
-196 -197 -316 -434 -366 -726 -24 -137 -14 -397 20 -530 60 -236 166 -429
332 -605 63 -66 214 -185 236 -185 6 0 31 29 55 64 l42 64 -82 62 c-289 219
-450 546 -449 915 0 249 66 468 202 671 54 80 206 232 285 284 164 108 391
185 545 185 79 0 80 2 80 91 l0 79 -72 -1 c-40 -1 -82 -3 -93 -6z"/>
<path d="M2110 3105 c-132 -50 -689 -288 -710 -303 -14 -10 -36 -34 -49 -53
-22 -33 -23 -39 -18 -169 14 -373 158 -727 399 -984 144 -155 349 -286 445
-286 94 0 279 118 430 273 196 202 320 437 383 722 27 127 44 352 30 405 -21
78 -46 93 -443 258 -231 95 -379 152 -400 151 -17 0 -48 -6 -67 -14z m688
-505 c5 -48 -26 -240 -54 -338 -88 -306 -269 -547 -526 -701 l-38 -23 0 675 0
675 308 -128 c305 -128 307 -129 310 -160z"/>
<path d="M3940 1327 c-32 -16 -52 -55 -44 -87 3 -14 44 -64 92 -112 l87 -88
-516 0 -516 0 -6 -39 c-2 -21 -2 -60 0 -85 l6 -46 480 0 480 0 -51 -54 c-59
-63 -70 -92 -48 -134 17 -33 34 -42 79 -42 26 0 52 21 175 143 154 152 177
184 167 225 -7 28 -223 254 -289 303 -43 32 -59 35 -96 16z"/>
</g>
</svg>
